<?xml version="1.0" encoding="utf-8"?>
<!-- Generator: Adobe Illustrator 19.0.0, SVG Export Plug-In . SVG Version: 6.00 Build 0)  -->
<svg version="1.1" id="Capa_1" xmlns="http://www.w3.org/2000/svg" xmlns:xlink="http://www.w3.org/1999/xlink" x="0px" y="0px"
	 viewBox="0 0 42.3 27.3" style="enable-background:new 0 0 42.3 27.3;" xml:space="preserve">
<style type="text/css">
	.st0{fill:none;stroke:#F2D66B;stroke-width:1.7426;stroke-linecap:round;stroke-linejoin:round;stroke-miterlimit:10;}
	.st1{fill:#F2D66B;}
	.st2{fill:#C34662;stroke:#C34662;stroke-width:0.339;stroke-miterlimit:10;}
</style>
<g id="XMLID_569_">
	<path id="XMLID_700_" class="st0" d="M21.2,26.5c9.2,0,17.3-3.2,17.3-11.4c0-5.5-2.7-12.2-4.7-14.2c-0.9,1.2-3.1,4.8-4.4,5.6
		c-2.7-1.3-4.8-2-8.2-2s-5.6,0.7-8.2,2c-1.3-0.8-3.6-4.3-4.4-5.6c-2,2-4.7,8.7-4.7,14.2C3.8,23.3,11.9,26.5,21.2,26.5z"/>
	<g id="XMLID_582_">
		<g id="XMLID_588_">
			<path id="XMLID_120_" class="st1" d="M28.3,17.6c-2.3,0-4.1-0.8-4.6-1.3c-0.9-0.9-1.1-2.8-1.1-3.2h-2.8c0,0.4-0.3,2.3-1.1,3.2
				c-0.5,0.5-2.3,1.3-4.6,1.3h-0.1c-2.5,0-4.4-0.7-4.8-1.7c-0.3-0.8-0.9-3.4-0.7-4.7c0-0.6,0.5-1,1-1.1c1-0.1,2.7-0.3,4.3-0.3
				c0.8,0,1.5,0,2.1,0.1c0.9,0.1,2.7,0.9,3.3,1.2c0.2,0.1,0.4,0.1,0.6,0.2l3.1,0c0.2,0,0.4-0.1,0.5-0.2c0.7-0.3,2.4-1.1,3.3-1.2
				c0.6-0.1,1.3-0.1,2.1-0.1c1.6,0,3.3,0.2,4.3,0.3c0.6,0.1,1,0.5,1,1.1c0.1,1.3-0.4,3.9-0.7,4.7c-0.4,1-2.3,1.7-4.8,1.7H28.3z
				 M28.3,11.2c-1.5,0-3.4,0.2-4.2,1.1c-0.2,0.2-0.2,0.6-0.2,1.2c0.1,0.8,0.5,1.9,1.2,2.3c0.5,0.3,1.8,0.5,3.3,0.5
				c0.9,0,1.7-0.1,2.1-0.2c1.3-0.3,1.6-1.1,1.7-2.2l0-0.2c0.1-0.8,0.3-2-1-2.3C30.7,11.4,29.5,11.2,28.3,11.2z M14,11.2
				c-1.2,0-2.3,0.1-3,0.3c-1.3,0.3-1.1,1.5-1,2.3l0,0.2c0.1,1.1,0.5,1.8,1.7,2.2c0.4,0.1,1.2,0.2,2.1,0.2c1.5,0,2.8-0.2,3.3-0.5
				c0.7-0.4,1.1-1.5,1.2-2.3c0.1-0.5,0-1-0.2-1.2C17.4,11.4,15.4,11.2,14,11.2z"/>
			<path id="XMLID_113_" class="st1" d="M28.7,9.8c1.5,0,3.2,0.1,4.3,0.3c0.5,0.1,0.9,0.5,1,1c0.1,1.3-0.4,3.9-0.7,4.7
				c-0.4,1-2.3,1.7-4.7,1.7c0,0-0.1,0-0.1,0c-2.2,0-4-0.7-4.6-1.3c-1-1-1.1-3.2-1.1-3.2h-1.5h0h-1.5c0,0-0.2,2.2-1.1,3.2
				c-0.6,0.6-2.4,1.3-4.6,1.3c0,0-0.1,0-0.1,0c-2.4,0-4.3-0.6-4.7-1.7c-0.3-0.8-0.9-3.4-0.7-4.7c0-0.5,0.4-0.9,1-1
				c1.1-0.1,2.8-0.3,4.3-0.3c0.8,0,1.5,0,2.1,0.1c0.9,0.1,2.7,0.9,3.3,1.2c0.2,0.1,0.4,0.2,0.6,0.2l1.6,0l1.6,0
				c0.2,0,0.4-0.1,0.6-0.2c0.7-0.3,2.4-1.1,3.3-1.2C27.2,9.9,27.9,9.8,28.7,9.8 M28.5,16.4c0.9,0,1.7-0.1,2.1-0.2
				c1.3-0.3,1.6-1.2,1.8-2.2c0.1-0.8,0.4-2.3-1.1-2.5c-0.6-0.1-1.7-0.3-3-0.3c-1.7,0-3.5,0.2-4.3,1.1c-0.5,0.6-0.1,2.9,1.1,3.6
				C25.7,16.2,27.1,16.4,28.5,16.4 M13.8,16.4c1.3,0,2.8-0.1,3.3-0.5c1.1-0.7,1.6-3,1.1-3.6c-0.8-0.9-2.6-1.1-4.3-1.1
				c-1.2,0-2.4,0.1-3,0.3c-1.4,0.3-1.1,1.8-1.1,2.5c0.1,1.1,0.4,1.9,1.8,2.2C12.1,16.3,13,16.4,13.8,16.4 M28.7,9.7
				c-0.8,0-1.5,0-2.1,0.1c-0.9,0.1-2.7,0.9-3.4,1.2c-0.2,0.1-0.3,0.1-0.5,0.2l-1.5,0l-1.6,0c-0.2,0-0.3-0.1-0.5-0.2
				c-0.7-0.3-2.4-1.1-3.4-1.2c-0.6-0.1-1.3-0.1-2.1-0.1c-1.6,0-3.3,0.2-4.3,0.3c-0.6,0.1-1,0.6-1.1,1.1c-0.1,1.3,0.4,4,0.8,4.8
				c0.4,1.1,2.3,1.8,4.9,1.8l0.1,0c2.3,0,4.1-0.8,4.7-1.3c0.9-0.9,1.1-2.6,1.2-3.1h1.3h1.3c0.1,0.5,0.3,2.3,1.2,3.1
				c0.5,0.5,2.4,1.3,4.7,1.3l0.1,0c2.5,0,4.5-0.7,4.9-1.8c0.3-0.8,0.9-3.4,0.8-4.8C34,10.5,33.6,10.1,33,10
				C32,9.8,30.3,9.7,28.7,9.7L28.7,9.7z M28.5,16.2c-1.5,0-2.8-0.2-3.3-0.5c-0.7-0.4-1.1-1.5-1.2-2.3c-0.1-0.5,0-0.9,0.2-1.1
				c0.6-0.7,2.1-1.1,4.2-1.1c1.2,0,2.3,0.1,2.9,0.3c1.1,0.2,1.1,1.2,1,2.2l0,0.2c-0.1,1.1-0.4,1.8-1.7,2.1
				C30.2,16.1,29.3,16.2,28.5,16.2L28.5,16.2z M13.8,16.2c-0.9,0-1.7-0.1-2.1-0.2c-1.2-0.3-1.5-1-1.7-2.1l0-0.2c-0.1-1-0.2-2,1-2.2
				c0.6-0.1,1.8-0.3,2.9-0.3c2.1,0,3.5,0.4,4.2,1.1c0.2,0.2,0.2,0.6,0.2,1.1c-0.1,0.8-0.5,1.8-1.2,2.3C16.7,16,15.4,16.2,13.8,16.2
				L13.8,16.2z"/>
		</g>
		<path id="XMLID_587_" class="st2" d="M10.3,11c0-0.2,0-0.3-0.2-0.3c-0.3,0-0.8,0-1,0.2c-0.3,0.4-0.4,1.3-0.3,1.5
			c0,0.2,0.7,0.3,0.9,0.1c0.1-0.1,0.1-0.8,0.2-0.8c0.1-0.1,0.3-0.1,0.4-0.2C10.3,11.3,10.3,11,10.3,11z"/>
		<path id="XMLID_583_" class="st2" d="M32.1,11c0-0.2,0-0.3,0.2-0.3c0.3,0,0.8,0,1,0.2c0.3,0.4,0.4,1.3,0.3,1.5
			c0,0.2-0.7,0.3-0.9,0.1c-0.1-0.1-0.1-0.8-0.2-0.8c-0.1-0.1-0.3-0.1-0.4-0.2C32.1,11.3,32.1,11,32.1,11z"/>
	</g>
	<ellipse id="XMLID_580_" class="st0" cx="21.1" cy="16.9" rx="1" ry="0.5"/>
	<path id="XMLID_579_" class="st0" d="M26.4,18.6c0,0-0.1,2.2-2.7,2.2s-2.6-2.9-2.6-2.9s0,2.9-2.6,2.9s-2.7-2.2-2.7-2.2"/>
	<line id="XMLID_578_" class="st0" x1="10.9" y1="18.9" x2="0.9" y2="17.5"/>
	<line id="XMLID_574_" class="st0" x1="10.9" y1="21" x2="1.1" y2="23.5"/>
	<line id="XMLID_572_" class="st0" x1="31.3" y1="18.9" x2="41.4" y2="17.5"/>
	<line id="XMLID_570_" class="st0" x1="31.3" y1="21" x2="41.2" y2="23.5"/>
</g>
</svg>
