<?xml version="1.0" encoding="utf-8"?>
<!-- Generator: Adobe Illustrator 19.0.0, SVG Export Plug-In . SVG Version: 6.00 Build 0)  -->
<svg version="1.1" id="Capa_1" xmlns="http://www.w3.org/2000/svg" xmlns:xlink="http://www.w3.org/1999/xlink" x="0px" y="0px"
	 viewBox="0 0 75.4 87.1" style="enable-background:new 0 0 75.4 87.1;" xml:space="preserve">
<style type="text/css">
	.st0{display:none;}
	.st1{display:inline;fill:none;stroke:url(#XMLID_134_);stroke-width:2.3967;stroke-miterlimit:10;}
	.st2{display:inline;opacity:0.8;fill:#FFFFFF;}
	.st3{display:inline;}
	.st4{fill:none;stroke:#000000;stroke-width:2;stroke-miterlimit:10;}
	.st5{fill:#F6D9DE;}
	.st6{fill:none;stroke:#000000;stroke-miterlimit:10;}
	.st7{opacity:0.8;fill:#FFFFFF;}
	.st8{fill:none;stroke:url(#XMLID_135_);stroke-width:2.3967;stroke-miterlimit:10;}
	.st9{fill:none;stroke:#1F1713;stroke-width:1.9348;stroke-linecap:round;stroke-linejoin:round;stroke-miterlimit:10;}
	.st10{fill:#FFFFFF;stroke:#1F1713;stroke-width:1.9348;stroke-linecap:round;stroke-linejoin:round;stroke-miterlimit:10;}
</style>
<g id="XMLID_20_" class="st0">
	<linearGradient id="XMLID_134_" gradientUnits="userSpaceOnUse" x1="-38.6612" y1="87.1001" x2="-38.6612" y2="-9.094947e-013">
		<stop  offset="0" style="stop-color:#FF4463"/>
		<stop  offset="1" style="stop-color:#DFC669"/>
	</linearGradient>
	<polygon id="XMLID_540_" class="st1" points="-75.2,22.5 -38.7,1.4 -2.1,22.5 -2.1,64.6 -38.7,85.7 -75.2,64.6 	"/>
	<polygon id="XMLID_556_" class="st2" points="-71.3,24.7 -38.7,5.8 -6,24.7 -6,62.4 -38.7,81.3 -71.3,62.4 	"/>
	<g id="XMLID_744_" class="st3">
		<path id="XMLID_745_" d="M-17.3,23.5H-50c-1.7,0-3.1,1.4-3.1,3.1v24.5c0,1.7,1.4,3.1,3.1,3.1h10.9l-1.5,4.5h-1.2c-0.5,0-1,0.4-1,1
			s0.4,1,1,1h16.4c0.5,0,1-0.4,1-1s-0.4-1-1-1h-1.2l-1.5-4.5h10.9c1.7,0,3.1-1.4,3.1-3.1V26.6C-14.3,24.9-15.6,23.5-17.3,23.5z
			 M-50,25.5h32.6c0.6,0,1.1,0.5,1.1,1.1v19h-34.9v-19C-51.1,26-50.6,25.5-50,25.5z M-28.8,58.7h-9.8l1.5-4.5h6.8L-28.8,58.7z
			 M-17.3,52.2H-50c-0.6,0-1.1-0.5-1.1-1.1v-3.5h34.9v3.5C-16.2,51.7-16.7,52.2-17.3,52.2z"/>
		<path id="XMLID_758_" d="M-33.7,49c-0.3,0-0.5,0.1-0.7,0.3c-0.2,0.2-0.3,0.4-0.3,0.7c0,0.3,0.1,0.5,0.3,0.7
			c0.2,0.2,0.4,0.3,0.7,0.3c0.3,0,0.5-0.1,0.7-0.3c0.2-0.2,0.3-0.4,0.3-0.7c0-0.3-0.1-0.5-0.3-0.7C-33.1,49.1-33.4,49-33.7,49z"/>
		<path id="XMLID_759_" d="M-45.4,34.1h23.5c0.4,0,0.8-0.4,0.8-0.8v-3.4c0-0.4-0.4-0.8-0.8-0.8h-23.5c-0.4,0-0.8,0.4-0.8,0.8v3.4
			C-46.2,33.7-45.9,34.1-45.4,34.1z M-44.6,30.7h21.9v1.8h-21.9V30.7z"/>
		<path id="XMLID_762_" d="M-41.2,43c1.8,0,3.3-1.5,3.3-3.3c0-1.8-1.5-3.3-3.3-3.3c-1.8,0-3.3,1.5-3.3,3.3C-44.5,41.5-43,43-41.2,43
			z M-41.2,38c0.9,0,1.7,0.8,1.7,1.7c0,0.9-0.8,1.7-1.7,1.7c-0.9,0-1.7-0.8-1.7-1.7C-42.9,38.7-42.1,38-41.2,38z"/>
		<line id="XMLID_765_" class="st4" x1="-34.6" y1="38.2" x2="-22.7" y2="38.2"/>
		<line id="XMLID_766_" class="st4" x1="-34.6" y1="41.2" x2="-22.7" y2="41.2"/>
	</g>
	<g id="XMLID_781_" class="st3">
		<rect id="XMLID_782_" x="-62.8" y="35.2" class="st5" width="15" height="20.8"/>
		<path id="XMLID_783_" d="M-48.6,33.2h-13.6c-0.8,0-1.5,0.7-1.5,1.5V57c0,0.8,0.7,1.5,1.5,1.5h13.6c0.8,0,1.5-0.7,1.5-1.5V34.7
			C-47,33.9-47.7,33.2-48.6,33.2z M-57,34.7h3.3c0.2,0,0.3,0.1,0.3,0.3c0,0.2-0.1,0.3-0.3,0.3H-57c-0.2,0-0.3-0.1-0.3-0.3
			C-57.3,34.9-57.2,34.7-57,34.7z M-55.4,57.5c-0.4,0-0.8-0.4-0.8-0.8s0.4-0.8,0.8-0.8s0.8,0.4,0.8,0.8S-54.9,57.5-55.4,57.5z
			 M-48.3,55.2c0,0.2-0.2,0.4-0.4,0.4H-62c-0.2,0-0.4-0.2-0.4-0.4V36.6c0-0.2,0.2-0.4,0.4-0.4h13.3c0.2,0,0.4,0.2,0.4,0.4V55.2z"/>
		<path id="XMLID_788_" d="M-60.8,41.2h11c0.2,0,0.4-0.2,0.4-0.4v-1.6c0-0.2-0.2-0.4-0.4-0.4h-11c-0.2,0-0.4,0.2-0.4,0.4v1.6
			C-61.2,41-61,41.2-60.8,41.2z M-60.5,39.6h10.2v0.8h-10.2V39.6z"/>
		<path id="XMLID_791_" d="M-55.3,47.3c1.4,0,2.5-1.1,2.5-2.5c0-1.4-1.1-2.5-2.5-2.5c-1.4,0-2.5,1.1-2.5,2.5
			C-57.9,46.2-56.7,47.3-55.3,47.3z M-55.3,43.5c0.7,0,1.3,0.6,1.3,1.3c0,0.7-0.6,1.3-1.3,1.3c-0.7,0-1.3-0.6-1.3-1.3
			C-56.6,44-56.1,43.5-55.3,43.5z"/>
		<line id="XMLID_794_" class="st6" x1="-60.1" y1="49.8" x2="-50.6" y2="49.8"/>
		<line id="XMLID_795_" class="st6" x1="-60.1" y1="52.2" x2="-50.6" y2="52.2"/>
	</g>
</g>
<g id="XMLID_93_">
	<polygon id="XMLID_504_" class="st7" points="5,24.7 37.7,5.8 70.4,24.7 70.4,62.4 37.7,81.3 5,62.4 	"/>
	<linearGradient id="XMLID_135_" gradientUnits="userSpaceOnUse" x1="37.7155" y1="87.1001" x2="37.7155" y2="-9.094947e-013">
		<stop  offset="0" style="stop-color:#FF4463"/>
		<stop  offset="1" style="stop-color:#DFC669"/>
	</linearGradient>
	<polygon id="XMLID_541_" class="st8" points="1.2,22.5 37.7,1.4 74.2,22.5 74.2,64.6 37.7,85.7 1.2,64.6 	"/>
	<g id="XMLID_535_">
		<g id="XMLID_584_">
			<path id="XMLID_594_" class="st9" d="M42.7,56.2c0,0,1.5-6,4.4-8.9l-8.8-19.5h-0.1l-8.8,19.5c2.9,2.9,4.4,8.9,4.4,8.9H42.7z"/>
			<circle id="XMLID_593_" class="st9" cx="38.3" cy="43.6" r="1.5"/>
			<line id="XMLID_592_" class="st9" x1="38.3" y1="42" x2="38.3" y2="27.8"/>
			<rect id="XMLID_585_" x="31" y="56.5" class="st9" width="14.5" height="3.7"/>
		</g>
		<path id="XMLID_606_" class="st9" d="M17.3,47.2c0-11.6,9.4-21,21-21s21,9.4,21,21"/>
		<rect id="XMLID_571_" x="36.4" y="23.3" class="st10" width="3.8" height="3.8"/>
		<rect id="XMLID_608_" x="15.4" y="45.9" class="st10" width="3.8" height="3.8"/>
		<rect id="XMLID_622_" x="57.3" y="45.9" class="st10" width="3.8" height="3.8"/>
	</g>
</g>
</svg>
