<?xml version="1.0" encoding="utf-8"?>
<!-- Generator: Adobe Illustrator 19.0.0, SVG Export Plug-In . SVG Version: 6.00 Build 0)  -->
<svg version="1.1" id="Capa_1" xmlns="http://www.w3.org/2000/svg" xmlns:xlink="http://www.w3.org/1999/xlink" x="0px" y="0px"
	 viewBox="0 0 71.6 76.4" style="enable-background:new 0 0 71.6 76.4;" xml:space="preserve">
<style type="text/css">
	.st0{fill:#1D1D1D;}
	.st1{fill:#161516;stroke:#161516;stroke-width:1.438;stroke-linecap:round;stroke-linejoin:round;stroke-miterlimit:10;}
	.st2{fill:#E9C394;}
	.st3{fill:#E0A97F;}
	.st4{fill:none;stroke:#080508;stroke-width:2.0133;stroke-linecap:round;stroke-linejoin:round;stroke-miterlimit:10;}
	.st5{fill:#080508;}
	.st6{fill:#C44762;}
	.st7{fill:#030104;}
	.st8{fill:#F2D66B;}
	.st9{fill:#DBB54B;}
</style>
<g id="XMLID_563_">
	<path id="XMLID_612_" class="st0" d="M2.7,65.7c-0.1-1.9,0-6.3,0-9.7c0-4.5,1.3-19,1.3-22.6C4,15.5,18.5,1,36.4,1
		c6.2,0,11.9,1.7,16.8,4.7L50,7.9c8.8,1.5,15.5,9.2,15.5,18.4c0,3.9,1.2,37,0,39.4c0,0-2.4-1.3-11.8-1.1
		C44.3,64.8,2.7,65.7,2.7,65.7z"/>
	<path id="XMLID_611_" class="st1" d="M4.4,32.1c0,0,0.8-12.3,18.4-23C38-0.1,48.1,6.4,48.1,6.4l-3.6,3.5c0,0,12.2,2.2,15.8,8.8
		c3.5,6.6,1.5,43.5,1.5,43.5l3.7,3.6c0,0,1.2-32.9,0-39.4S62.2,13,57,10.6s-7-2.7-7-2.7l3.2-2.2c0,0-9.2-6.1-18.9-4.7
		C26.9,2.1,7.5,6.3,4.4,32.1z"/>
	<g id="XMLID_609_">
		<path id="XMLID_610_" class="st2" d="M48,16.7c-0.8-0.6-1.6-1.1-2.5-1.6c-3.9,7.5-11.7,12.5-20.7,12.5c-3,0-5.8-0.6-8.4-1.6
			c-0.8,2.2-1.2,4.6-1.2,7.1c0,11.3,9.2,20.5,20.5,20.5s20.5-9.2,20.5-20.5c0-0.9-0.1-1.7-0.2-2.6C51.9,27.2,49,22.3,48,16.7z"/>
	</g>
	<g id="XMLID_604_">
		<path id="XMLID_605_" class="st3" d="M33.4,51.9c11.3,0,20.5-9.2,20.5-20.5c0-0.9-0.1-1.7-0.2-2.6l2.3,1.8c0,0,0.2,13.1-6.1,17.3
			s-13.2,6.6-16.6,5.8S33.4,51.9,33.4,51.9z"/>
	</g>
	<g id="XMLID_602_">
		<path id="XMLID_603_" class="st3" d="M55.4,35.4c-4.5-3.7-8.2-8.5-9.3-14.5c-0.8-0.6-1.2-1.7-2.2-2.2l1.2-2.8l2.8,0.9
			c0,0,1.2,6.4,2.7,9s5.3,4.9,5.3,4.9S55.5,36.3,55.4,35.4z"/>
	</g>
	<g id="XMLID_600_">
		<path id="XMLID_601_" class="st3" d="M48.1,18.4c-4.3,8.2-12.8,13.7-22.7,13.7c-3.2,0-6.3-0.6-9.2-1.7c0.2-2.2-0.6-4.6,0.2-4.3
			c0,0,8,3,16.9-0.1s11.9-10.2,11.9-10.2L48.1,18.4z"/>
	</g>
	<g id="XMLID_598_">
		<path id="XMLID_599_" class="st4" d="M48,16.7c-0.8-0.6-1.6-1.1-2.5-1.6c-3.9,7.5-11.7,12.5-20.7,12.5c-3,0-5.8-0.6-8.4-1.6
			c-0.8,2.2-1.2,4.6-1.2,7.1c0,11.3,9.2,20.5,20.5,20.5s20.5-9.2,20.5-20.5c0-0.9-0.1-1.7-0.2-2.6C51.9,27.2,49,22.3,48,16.7z"/>
	</g>
	<g id="XMLID_587_">
		<g id="XMLID_591_">
			<path id="XMLID_42_" class="st5" d="M47.1,39.4c-3.6,0-6.5-1.2-7.4-2.1c-1.4-1.4-1.8-4.4-1.8-5h-4.5c-0.1,0.6-0.4,3.6-1.8,5
				c-0.9,0.9-3.7,2.1-7.4,2.1l-0.2,0c-4,0-7-1.1-7.7-2.7c-0.5-1.3-1.4-5.4-1.2-7.5c0.1-0.9,0.7-1.6,1.6-1.7c1.6-0.2,4.3-0.5,6.9-0.5
				c1.3,0,2.4,0.1,3.3,0.2c1.5,0.2,4.3,1.4,5.3,1.9c0.3,0.1,0.6,0.2,0.9,0.3l4.9,0c0.3,0,0.6-0.1,0.9-0.3c1-0.5,3.8-1.7,5.3-1.9
				c0.9-0.1,2-0.2,3.3-0.2c2.6,0,5.3,0.3,6.9,0.5c0.9,0.1,1.6,0.8,1.6,1.7c0.2,2.1-0.7,6.3-1.2,7.5c-0.7,1.7-3.7,2.7-7.7,2.7
				L47.1,39.4z M47.2,29.3c-2.3,0-5.4,0.3-6.8,1.7c-0.3,0.3-0.4,1-0.3,1.9c0.2,1.3,0.8,3,2,3.7c0.7,0.5,2.8,0.8,5.3,0.8
				c1.4,0,2.7-0.1,3.4-0.3c2-0.5,2.5-1.7,2.7-3.4l0-0.3c0.2-1.3,0.4-3.2-1.6-3.6C50.9,29.5,49.1,29.3,47.2,29.3z M24.3,29.3
				c-1.9,0-3.7,0.2-4.7,0.4c-2,0.4-1.8,2.4-1.6,3.6l0,0.3c0.2,1.7,0.7,2.9,2.7,3.4c0.7,0.2,2,0.3,3.4,0.3c2.5,0,4.5-0.3,5.3-0.8
				c1.1-0.7,1.8-2.4,2-3.7c0.1-0.9,0-1.6-0.3-1.9C29.7,29.6,26.6,29.3,24.3,29.3z"/>
			<path id="XMLID_35_" class="st5" d="M47.7,27.1c2.5,0,5.2,0.2,6.9,0.5c0.8,0.1,1.4,0.8,1.5,1.6c0.2,2.1-0.7,6.3-1.2,7.5
				c-0.7,1.7-3.7,2.7-7.6,2.7c-0.1,0-0.1,0-0.2,0c-3.5,0-6.4-1.2-7.3-2.1c-1.5-1.5-1.8-5.1-1.8-5.1h-2.4h0h-2.4c0,0-0.3,3.6-1.8,5.1
				c-0.9,0.9-3.8,2-7.3,2.1c-0.1,0-0.1,0-0.2,0c-3.8,0-6.9-1-7.6-2.7c-0.5-1.2-1.4-5.4-1.2-7.5c0.1-0.8,0.7-1.5,1.5-1.6
				c1.7-0.2,4.4-0.5,6.9-0.5c1.2,0,2.3,0.1,3.3,0.2c1.5,0.2,4.2,1.4,5.3,1.9c0.3,0.1,0.6,0.2,0.9,0.3l2.5,0l2.5,0
				c0.3,0,0.6-0.1,0.9-0.3c1.1-0.5,3.8-1.7,5.3-1.9C45.4,27.1,46.5,27.1,47.7,27.1 M47.4,37.5c1.4,0,2.7-0.1,3.4-0.3
				c2.1-0.6,2.6-1.9,2.8-3.5c0.1-1.3,0.6-3.6-1.7-4.1c-1-0.2-2.8-0.4-4.7-0.4c-2.7,0-5.6,0.4-6.8,1.8c-0.8,0.9-0.1,4.6,1.7,5.7
				C42.9,37.2,45.3,37.5,47.4,37.5 M24.1,37.5c2.1,0,4.4-0.2,5.3-0.8c1.8-1.2,2.5-4.9,1.7-5.7c-1.3-1.4-4.2-1.8-6.8-1.8
				c-2,0-3.8,0.2-4.7,0.4c-2.3,0.5-1.8,2.8-1.7,4.1c0.2,1.7,0.7,3,2.8,3.5C21.4,37.4,22.7,37.5,24.1,37.5 M47.7,26.8
				c-1.3,0-2.4,0.1-3.3,0.2c-1.5,0.2-4.3,1.4-5.4,2c-0.3,0.1-0.6,0.2-0.8,0.3l-2.4,0l-2.5,0c-0.3,0-0.5-0.1-0.8-0.3
				c-1-0.5-3.9-1.7-5.4-2c-0.9-0.1-2-0.2-3.3-0.2c-2.6,0-5.3,0.3-6.9,0.5c-0.9,0.1-1.7,0.9-1.7,1.8c-0.2,2.1,0.7,6.3,1.2,7.6
				c0.7,1.7,3.7,2.8,7.8,2.8l0.2,0c3.7,0,6.6-1.3,7.4-2.1c1.4-1.4,1.8-4.2,1.8-5h2.1h2.1c0.1,0.8,0.5,3.6,1.8,5
				c0.9,0.9,3.8,2.1,7.4,2.1l0.2,0c4.1,0,7.1-1.1,7.8-2.8c0.5-1.3,1.4-5.5,1.2-7.6c-0.1-0.9-0.8-1.7-1.7-1.8
				C53,27.1,50.3,26.8,47.7,26.8L47.7,26.8z M47.4,37.2c-2.4,0-4.5-0.3-5.2-0.8c-1.1-0.7-1.7-2.4-1.9-3.6c-0.1-0.8,0-1.5,0.2-1.7
				c1-1.1,3.4-1.7,6.7-1.7c1.9,0,3.7,0.2,4.7,0.4c1.8,0.4,1.7,1.9,1.5,3.5l0,0.3c-0.2,1.7-0.7,2.8-2.6,3.3
				C50.1,37.1,48.8,37.2,47.4,37.2L47.4,37.2z M24.1,37.2c-1.4,0-2.7-0.1-3.3-0.3c-1.9-0.5-2.4-1.6-2.6-3.3l0-0.3
				c-0.2-1.6-0.3-3.2,1.5-3.5c1-0.2,2.8-0.4,4.7-0.4c3.3,0,5.6,0.6,6.7,1.7c0.3,0.3,0.3,0.9,0.2,1.7c-0.2,1.3-0.8,2.9-1.9,3.6
				C28.5,36.9,26.5,37.2,24.1,37.2L24.1,37.2z"/>
		</g>
		<path id="XMLID_590_" class="st6" d="M18.4,28.8c0-0.3-0.1-0.5-0.3-0.5c-0.5,0-1.3-0.1-1.6,0.3c-0.5,0.6-0.6,2-0.5,2.4
			c0,0.3,1.2,0.5,1.4,0.1c0.1-0.2,0.1-1.2,0.3-1.3c0.1-0.1,0.5-0.1,0.6-0.2C18.4,29.4,18.5,29,18.4,28.8z"/>
		<path id="XMLID_588_" class="st6" d="M53.1,28.8c0-0.3,0.1-0.5,0.3-0.5c0.5,0,1.3-0.1,1.6,0.3c0.5,0.6,0.6,2,0.5,2.4
			c0,0.3-1.2,0.5-1.4,0.1c-0.1-0.2-0.1-1.2-0.3-1.3c-0.1-0.1-0.5-0.1-0.6-0.2C53.2,29.4,53.1,29,53.1,28.8z"/>
	</g>
	<g id="XMLID_580_">
		<circle id="XMLID_586_" class="st7" cx="26.9" cy="34" r="2.3"/>
		<circle id="XMLID_583_" class="st7" cx="44.5" cy="34" r="2.3"/>
		<path id="XMLID_582_" class="st4" d="M32.4,41.3c0,0,0.9,2,3.6,2s3.1-2,3.1-2"/>
	</g>
	<path id="XMLID_579_" class="st4" d="M3.7,66.3C2.5,64.1,3.6,40.4,4,33.5C4.9,15.6,18.5,1,36.4,1c6.2,0,11.9,1.7,16.8,4.7L50,7.9
		c8.8,1.5,15.5,9.2,15.5,18.4c0,3.9,1.2,37,0,39.4c0,0-2.4-1.3-11.8-1.1C44.3,64.8,3.7,66.3,3.7,66.3z"/>
	<path id="XMLID_578_" class="st8" d="M70.6,75.4c0-6.7-9.9-17.8-22.1-17.8c-3.1,0-7.8,12.1-10.3,12.8c-1.2,0.3-2.5,0.3-3.8,0
		c-2.7-0.7-7.9-12.8-11.3-12.8C10.9,57.6,1,68.8,1,75.4H70.6z"/>
	<path id="XMLID_574_" class="st9" d="M68.2,75.4C65.4,69.1,57,61.7,47.1,61.7l-1.4-0.8l2.7-3.8c0,0,10.8,3.6,14,5.5
		c3.2,1.9,7.6,10.6,8.2,12.8L68.2,75.4z"/>
	<path id="XMLID_572_" class="st4" d="M70.6,75.4c0-6.7-9.9-17.8-22.1-17.8c-3.1,0-7.8,1.2-10.3,1.9c-1.2,0.3-2.5,0.3-3.8,0
		c-2.7-0.7-7.9-1.9-11.3-1.9C10.9,57.6,1,68.8,1,75.4H70.6z"/>
	<path id="XMLID_570_" class="st2" d="M36,53.9c-3.8,0-7.3-1-10-2.8c-1.4,1.5-2.4,3.4-2.9,5.4c2.7,3.1,7.5,14,12.9,14
		c5.1,0,9.6-10.7,12.4-13.5C48,54.9,47,53,45.6,51.4C43,52.9,39.6,53.9,36,53.9z"/>
	<path id="XMLID_569_" class="st3" d="M32.9,69.5c4.5,0.2,8.7-9.1,11.5-11.9c-0.5-2.1-0.7-3.1-2-4.7l3.7-1.7l2.8,6.5
		c0,0-7.1,12.6-10.3,12.8S32.9,69.5,32.9,69.5z"/>
	<path id="XMLID_568_" class="st4" d="M36,53.9c-3.8,0-7.3-1-10-2.8c-1.4,1.5-2.4,3.4-2.9,5.4c2.7,3.1,7.5,14,12.9,14
		c5.1,0,9.6-10.7,12.4-13.5C48,54.9,47,53,45.6,51.4C43,52.9,39.6,53.9,36,53.9z"/>
</g>
</svg>
