<?xml version="1.0" encoding="utf-8"?>
<!-- Generator: Adobe Illustrator 19.0.0, SVG Export Plug-In . SVG Version: 6.00 Build 0)  -->
<svg version="1.1" id="Capa_1" xmlns="http://www.w3.org/2000/svg" xmlns:xlink="http://www.w3.org/1999/xlink" x="0px" y="0px"
	 viewBox="0 0 34.1 38.9" style="enable-background:new 0 0 34.1 38.9;" xml:space="preserve">
<style type="text/css">
	.st0{fill:#FFFFFF;stroke:url(#XMLID_175_);stroke-width:3;stroke-linecap:round;stroke-linejoin:round;stroke-miterlimit:10;}
	.st1{fill:#1D1C1C;}
	.st2{fill:#151415;stroke:#151415;stroke-width:0.4055;stroke-linecap:round;stroke-linejoin:round;stroke-miterlimit:10;}
	.st3{fill:#E8C192;}
	.st4{fill:#DFA87F;}
	.st5{fill:none;stroke:#050206;stroke-width:0.5678;stroke-linecap:round;stroke-linejoin:round;stroke-miterlimit:10;}
	.st6{fill:#050206;}
	.st7{fill:#C34662;}
	.st8{fill:#010002;}
	.st9{fill:#F1D56A;}
	.st10{fill:#D9B44B;}
</style>
<linearGradient id="XMLID_175_" gradientUnits="userSpaceOnUse" x1="17.0495" y1="38.91" x2="17.0495" y2="-1.695069e-005">
	<stop  offset="0" style="stop-color:#FF4463"/>
	<stop  offset="1" style="stop-color:#F2D66B"/>
</linearGradient>
<polygon id="XMLID_26_" class="st0" points="1.5,10.5 17,1.5 32.6,10.5 32.6,28.4 17,37.4 1.5,28.4 "/>
<g id="XMLID_20_">
	<path id="XMLID_180_" class="st1" d="M8.2,26.2c0-0.5,0-1.8,0-2.7c0-1.3,0.4-5.4,0.4-6.4c0-5.1,4.1-9.2,9.2-9.2
		c1.7,0,3.4,0.5,4.7,1.3l-0.9,0.6c2.5,0.4,4.4,2.6,4.4,5.2c0,1.1,0.3,10.4,0,11.1c0,0-0.7-0.4-3.3-0.3S8.2,26.2,8.2,26.2z"/>
	<path id="XMLID_172_" class="st2" d="M8.7,16.8c0,0,0.2-3.5,5.2-6.5c4.3-2.6,7.1-0.8,7.1-0.8l-1,1c0,0,3.5,0.6,4.4,2.5
		c1,1.9,0.4,12.3,0.4,12.3l1.1,1c0,0,0.3-9.3,0-11.1c-0.3-1.8-0.9-3.8-2.4-4.4c-1.5-0.7-2-0.8-2-0.8l0.9-0.6c0,0-2.6-1.7-5.3-1.3
		C15.1,8.3,9.6,9.5,8.7,16.8z"/>
	<g id="XMLID_155_">
		<path id="XMLID_171_" class="st3" d="M21,12.4c-0.2-0.2-0.5-0.3-0.7-0.4c-1.1,2.1-3.3,3.5-5.8,3.5c-0.8,0-1.6-0.2-2.4-0.4
			c-0.2,0.6-0.4,1.3-0.4,2c0,3.2,2.6,5.8,5.8,5.8s5.8-2.6,5.8-5.8c0-0.2,0-0.5,0-0.7C22.1,15.4,21.3,14,21,12.4z"/>
	</g>
	<g id="XMLID_152_">
		<path id="XMLID_154_" class="st4" d="M16.9,22.3c3.2,0,5.8-2.6,5.8-5.8c0-0.2,0-0.5,0-0.7l0.7,0.5c0,0,0.1,3.7-1.7,4.9
			c-1.8,1.2-3.7,1.9-4.7,1.6C16,22.6,16.9,22.3,16.9,22.3z"/>
	</g>
	<g id="XMLID_146_">
		<path id="XMLID_151_" class="st4" d="M23.1,17.7c-1.3-1.1-2.3-2.4-2.6-4.1c-0.2-0.2-0.3-0.5-0.6-0.6l0.3-0.8l0.8,0.3
			c0,0,0.3,1.8,0.8,2.5c0.4,0.7,1.5,1.4,1.5,1.4S23.1,17.9,23.1,17.7z"/>
	</g>
	<g id="XMLID_143_">
		<path id="XMLID_144_" class="st4" d="M21.1,12.9c-1.2,2.3-3.6,3.9-6.4,3.9c-0.9,0-1.8-0.2-2.6-0.5c0.1-0.6-0.2-1.3,0.1-1.2
			c0,0,2.2,0.9,4.8,0s3.3-2.9,3.3-2.9L21.1,12.9z"/>
	</g>
	<g id="XMLID_115_">
		<path id="XMLID_116_" class="st5" d="M21,12.4c-0.2-0.2-0.5-0.3-0.7-0.4c-1.1,2.1-3.3,3.5-5.8,3.5c-0.8,0-1.6-0.2-2.4-0.4
			c-0.2,0.6-0.4,1.3-0.4,2c0,3.2,2.6,5.8,5.8,5.8s5.8-2.6,5.8-5.8c0-0.2,0-0.5,0-0.7C22.1,15.4,21.3,14,21,12.4z"/>
	</g>
	<g id="XMLID_79_">
		<g id="XMLID_111_">
			<path id="XMLID_97_" class="st6" d="M20.8,18.8c-1,0-1.8-0.4-2.1-0.6c-0.4-0.4-0.5-1.4-0.5-1.5l-0.6,0h-0.7c0,0,0,1-0.5,1.4
				c-0.2,0.2-1,0.6-2.1,0.6c0,0,0,0,0,0c-1.2,0-2-0.3-2.2-0.8c-0.1-0.4-0.4-1.5-0.3-2.1c0-0.3,0.2-0.4,0.5-0.5
				c0.4-0.1,1.2-0.1,1.9-0.1c0.3,0,0.7,0,0.9,0.1c0.4,0.1,1.2,0.4,1.5,0.5c0.1,0,0.2,0.1,0.2,0.1l1.4,0c0.1,0,0.2,0,0.2-0.1
				c0.3-0.1,1.1-0.5,1.5-0.5c0.3,0,0.6-0.1,0.9-0.1c0.7,0,1.5,0.1,1.9,0.1c0.2,0,0.4,0.2,0.5,0.5c0.1,0.6-0.2,1.8-0.3,2.1
				C22.8,18.5,22,18.8,20.8,18.8L20.8,18.8z M20.8,16c-0.7,0-1.5,0.1-1.9,0.5c-0.1,0.1-0.1,0.3-0.1,0.5c0,0.4,0.2,0.8,0.5,1
				c0.2,0.1,0.8,0.2,1.5,0.2c0.4,0,0.8,0,1-0.1c0.6-0.1,0.7-0.5,0.8-1c0.1-0.4,0.1-1-0.4-1.1C21.8,16,21.3,16,20.8,16z M14.3,16
				c-0.5,0-1.1,0.1-1.3,0.1c-0.6,0.1-0.5,0.7-0.5,1c0.1,0.6,0.2,0.9,0.8,1c0.2,0,0.6,0.1,1,0.1c0.7,0,1.3-0.1,1.5-0.2
				c0.3-0.2,0.5-0.7,0.6-1c0-0.2,0-0.4-0.1-0.5C15.9,16,15,16,14.3,16z"/>
			<path id="XMLID_90_" class="st6" d="M20.9,15.3c0.7,0,1.5,0.1,1.9,0.1c0.2,0,0.4,0.2,0.4,0.5c0.1,0.6-0.2,1.8-0.3,2.1
				c-0.2,0.5-1.1,0.8-2.1,0.8c0,0,0,0,0,0c-1,0-1.8-0.3-2.1-0.6c-0.4-0.4-0.5-1.4-0.5-1.4h-0.7h0h-0.7c0,0-0.1,1-0.5,1.4
				c-0.3,0.2-1.1,0.6-2.1,0.6c0,0,0,0,0,0c-1.1,0-1.9-0.3-2.1-0.8c-0.1-0.3-0.4-1.5-0.3-2.1c0-0.2,0.2-0.4,0.4-0.5
				c0.5-0.1,1.2-0.1,1.9-0.1c0.3,0,0.7,0,0.9,0.1c0.4,0.1,1.2,0.4,1.5,0.5c0.1,0,0.2,0.1,0.3,0.1l0.7,0l0.7,0c0.1,0,0.2,0,0.3-0.1
				c0.3-0.1,1.1-0.5,1.5-0.5C20.3,15.3,20.6,15.3,20.9,15.3 M20.9,18.3c0.4,0,0.8,0,1-0.1c0.6-0.2,0.7-0.5,0.8-1
				c0-0.4,0.2-1-0.5-1.1c-0.3-0.1-0.8-0.1-1.3-0.1c-0.7,0-1.6,0.1-1.9,0.5c-0.2,0.3,0,1.3,0.5,1.6C19.6,18.2,20.3,18.3,20.9,18.3
				 M14.3,18.3c0.6,0,1.3-0.1,1.5-0.2c0.5-0.3,0.7-1.4,0.5-1.6c-0.4-0.4-1.2-0.5-1.9-0.5c-0.6,0-1.1,0.1-1.3,0.1
				c-0.6,0.1-0.5,0.8-0.5,1.1c0.1,0.5,0.2,0.8,0.8,1C13.5,18.2,13.9,18.3,14.3,18.3 M20.9,15.3c-0.4,0-0.7,0-0.9,0.1
				c-0.4,0.1-1.2,0.4-1.5,0.6c-0.1,0-0.2,0.1-0.2,0.1l-0.7,0l-0.7,0c-0.1,0-0.2,0-0.2-0.1c-0.3-0.1-1.1-0.5-1.5-0.6
				c-0.3,0-0.6-0.1-0.9-0.1c-0.7,0-1.5,0.1-1.9,0.1c-0.3,0-0.5,0.2-0.5,0.5c-0.1,0.6,0.2,1.8,0.3,2.1c0.2,0.5,1.1,0.8,2.2,0.8l0,0
				c1,0,1.9-0.4,2.1-0.6c0.4-0.4,0.5-1.2,0.5-1.4h0.6h0.6c0,0.2,0.1,1,0.5,1.4c0.2,0.2,1.1,0.6,2.1,0.6l0,0c1.1,0,2-0.3,2.2-0.8
				c0.1-0.4,0.4-1.5,0.3-2.1c0-0.3-0.2-0.5-0.5-0.5C22.4,15.3,21.7,15.3,20.9,15.3L20.9,15.3z M20.9,18.2c-0.7,0-1.3-0.1-1.5-0.2
				c-0.3-0.2-0.5-0.7-0.5-1c0-0.2,0-0.4,0.1-0.5c0.3-0.3,1-0.5,1.9-0.5c0.5,0,1,0.1,1.3,0.1c0.5,0.1,0.5,0.5,0.4,1l0,0.1
				c-0.1,0.5-0.2,0.8-0.7,0.9C21.6,18.2,21.2,18.2,20.9,18.2L20.9,18.2z M14.3,18.2c-0.4,0-0.8,0-0.9-0.1c-0.5-0.1-0.7-0.5-0.7-0.9
				l0-0.1c-0.1-0.5-0.1-0.9,0.4-1c0.3-0.1,0.8-0.1,1.3-0.1c0.9,0,1.6,0.2,1.9,0.5c0.1,0.1,0.1,0.3,0.1,0.5c0,0.4-0.2,0.8-0.5,1
				C15.5,18.1,15,18.2,14.3,18.2L14.3,18.2z"/>
		</g>
		<path id="XMLID_81_" class="st7" d="M12.7,15.8c0-0.1,0-0.1-0.1-0.1c-0.1,0-0.4,0-0.5,0.1C12,16,12,16.3,12,16.5
			c0,0.1,0.3,0.1,0.4,0c0-0.1,0-0.3,0.1-0.4c0,0,0.1,0,0.2-0.1C12.7,16,12.7,15.9,12.7,15.8z"/>
		<path id="XMLID_80_" class="st7" d="M22.5,15.8c0-0.1,0-0.1,0.1-0.1c0.1,0,0.4,0,0.5,0.1c0.1,0.2,0.2,0.6,0.1,0.7
			c0,0.1-0.3,0.1-0.4,0c0-0.1,0-0.3-0.1-0.4c0,0-0.1,0-0.2-0.1C22.5,16,22.5,15.9,22.5,15.8z"/>
	</g>
	<g id="XMLID_75_">
		<circle id="XMLID_78_" class="st8" cx="15.1" cy="17.3" r="0.7"/>
		<circle id="XMLID_77_" class="st8" cx="20.1" cy="17.3" r="0.7"/>
		<path id="XMLID_76_" class="st5" d="M16.6,19.3c0,0,0.2,0.6,1,0.6s0.9-0.6,0.9-0.6"/>
	</g>
	<path id="XMLID_70_" class="st5" d="M8.5,26.4c-0.3-0.6,0-7.3,0.1-9.2c0.3-5,4.1-9.2,9.2-9.2c1.7,0,3.4,0.5,4.7,1.3l-0.9,0.6
		c2.5,0.4,4.4,2.6,4.4,5.2c0,1.1,0.3,10.4,0,11.1c0,0-0.7-0.4-3.3-0.3S8.5,26.4,8.5,26.4z"/>
	<path id="XMLID_69_" class="st9" d="M27.4,29c0-1.9-2.8-5-6.2-5c-0.9,0-2.2,3.4-2.9,3.6c-0.3,0.1-0.7,0.1-1.1,0
		C16.4,27.4,15,24,14,24c-3.4,0-6.2,3.1-6.2,5H27.4z"/>
	<path id="XMLID_68_" class="st10" d="M26.7,29c-0.8-1.8-3.1-3.9-6-3.9l-0.4-0.2l0.8-1.1c0,0,3,1,3.9,1.6c0.9,0.5,2.1,3,2.3,3.6
		L26.7,29z"/>
	<path id="XMLID_66_" class="st5" d="M27.4,29c0-1.9-2.8-5-6.2-5c-0.9,0-2.2,0.3-2.9,0.5c-0.3,0.1-0.7,0.1-1.1,0
		C16.4,24.3,15,24,14,24c-3.4,0-6.2,3.1-6.2,5H27.4z"/>
	<path id="XMLID_59_" class="st3" d="M17.6,22.9c-1.1,0-2.1-0.3-2.8-0.8c-0.4,0.4-0.7,1-0.8,1.5c0.8,0.9,2.1,4,3.6,4
		c1.4,0,2.7-3,3.5-3.8c-0.1-0.6-0.4-1.2-0.8-1.6C19.6,22.6,18.7,22.9,17.6,22.9z"/>
	<path id="XMLID_56_" class="st4" d="M16.8,27.3c1.3,0,2.4-2.6,3.2-3.4c-0.1-0.6-0.2-0.9-0.6-1.3l1-0.5l0.8,1.8c0,0-2,3.6-2.9,3.6
		C17.4,27.6,16.8,27.3,16.8,27.3z"/>
	<path id="XMLID_23_" class="st5" d="M17.6,22.9c-1.1,0-2.1-0.3-2.8-0.8c-0.4,0.4-0.7,1-0.8,1.5c0.8,0.9,2.1,4,3.6,4
		c1.4,0,2.7-3,3.5-3.8c-0.1-0.6-0.4-1.2-0.8-1.6C19.6,22.6,18.7,22.9,17.6,22.9z"/>
</g>
</svg>
