<?xml version="1.0" encoding="utf-8"?>
<!-- Generator: Adobe Illustrator 19.0.0, SVG Export Plug-In . SVG Version: 6.00 Build 0)  -->
<svg version="1.1" id="Capa_1" xmlns="http://www.w3.org/2000/svg" xmlns:xlink="http://www.w3.org/1999/xlink" x="0px" y="0px"
	 viewBox="0 0 75.4 87.1" style="enable-background:new 0 0 75.4 87.1;" xml:space="preserve">
<style type="text/css">
	.st0{fill:none;stroke:url(#XMLID_94_);stroke-width:2.3967;stroke-miterlimit:10;}
	.st1{opacity:0.8;fill:#FFFFFF;}
	.st2{fill:none;stroke:#000000;stroke-width:2;stroke-miterlimit:10;}
	.st3{fill:#F6D9DE;}
	.st4{fill:none;stroke:#000000;stroke-miterlimit:10;}
</style>
<g id="XMLID_20_">
	<linearGradient id="XMLID_94_" gradientUnits="userSpaceOnUse" x1="37.7155" y1="87.1001" x2="37.7155" y2="-9.094947e-013">
		<stop  offset="0" style="stop-color:#FF4463"/>
		<stop  offset="1" style="stop-color:#DFC669"/>
	</linearGradient>
	<polygon id="XMLID_540_" class="st0" points="1.2,22.5 37.7,1.4 74.2,22.5 74.2,64.6 37.7,85.7 1.2,64.6 	"/>
	<polygon id="XMLID_556_" class="st1" points="5,24.7 37.7,5.8 70.4,24.7 70.4,62.4 37.7,81.3 5,62.4 	"/>
	<g id="XMLID_744_">
		<path id="XMLID_745_" d="M59,23.5H26.4c-1.7,0-3.1,1.4-3.1,3.1v24.5c0,1.7,1.4,3.1,3.1,3.1h10.9l-1.5,4.5h-1.2c-0.5,0-1,0.4-1,1
			s0.4,1,1,1h16.4c0.5,0,1-0.4,1-1s-0.4-1-1-1h-1.2l-1.5-4.5H59c1.7,0,3.1-1.4,3.1-3.1V26.6C62.1,24.9,60.7,23.5,59,23.5z
			 M26.4,25.5H59c0.6,0,1.1,0.5,1.1,1.1v19H25.3v-19C25.3,26,25.8,25.5,26.4,25.5z M47.6,58.7h-9.8l1.5-4.5h6.8L47.6,58.7z M59,52.2
			H26.4c-0.6,0-1.1-0.5-1.1-1.1v-3.5h34.9v3.5C60.2,51.7,59.7,52.2,59,52.2z"/>
		<path id="XMLID_758_" d="M42.7,49c-0.3,0-0.5,0.1-0.7,0.3c-0.2,0.2-0.3,0.4-0.3,0.7c0,0.3,0.1,0.5,0.3,0.7
			c0.2,0.2,0.4,0.3,0.7,0.3c0.3,0,0.5-0.1,0.7-0.3c0.2-0.2,0.3-0.4,0.3-0.7c0-0.3-0.1-0.5-0.3-0.7C43.2,49.1,43,49,42.7,49z"/>
		<path id="XMLID_759_" d="M31,34.1h23.5c0.4,0,0.8-0.4,0.8-0.8v-3.4c0-0.4-0.4-0.8-0.8-0.8H31c-0.4,0-0.8,0.4-0.8,0.8v3.4
			C30.2,33.7,30.5,34.1,31,34.1z M31.8,30.7h21.9v1.8H31.8V30.7z"/>
		<path id="XMLID_762_" d="M35.2,43c1.8,0,3.3-1.5,3.3-3.3c0-1.8-1.5-3.3-3.3-3.3c-1.8,0-3.3,1.5-3.3,3.3C31.9,41.5,33.4,43,35.2,43
			z M35.2,38c0.9,0,1.7,0.8,1.7,1.7c0,0.9-0.8,1.7-1.7,1.7c-0.9,0-1.7-0.8-1.7-1.7C33.5,38.7,34.3,38,35.2,38z"/>
		<line id="XMLID_765_" class="st2" x1="41.7" y1="38.2" x2="53.7" y2="38.2"/>
		<line id="XMLID_766_" class="st2" x1="41.7" y1="41.2" x2="53.7" y2="41.2"/>
	</g>
	<g id="XMLID_781_">
		<rect id="XMLID_782_" x="13.6" y="35.2" class="st3" width="15" height="20.8"/>
		<path id="XMLID_783_" d="M27.8,33.2H14.3c-0.8,0-1.5,0.7-1.5,1.5V57c0,0.8,0.7,1.5,1.5,1.5h13.6c0.8,0,1.5-0.7,1.5-1.5V34.7
			C29.4,33.9,28.7,33.2,27.8,33.2z M19.4,34.7h3.3c0.2,0,0.3,0.1,0.3,0.3c0,0.2-0.1,0.3-0.3,0.3h-3.3c-0.2,0-0.3-0.1-0.3-0.3
			C19.1,34.9,19.2,34.7,19.4,34.7z M21,57.5c-0.4,0-0.8-0.4-0.8-0.8s0.4-0.8,0.8-0.8c0.4,0,0.8,0.4,0.8,0.8S21.5,57.5,21,57.5z
			 M28,55.2c0,0.2-0.2,0.4-0.4,0.4H14.4c-0.2,0-0.4-0.2-0.4-0.4V36.6c0-0.2,0.2-0.4,0.4-0.4h13.3c0.2,0,0.4,0.2,0.4,0.4V55.2z"/>
		<path id="XMLID_788_" d="M15.5,41.2h11c0.2,0,0.4-0.2,0.4-0.4v-1.6c0-0.2-0.2-0.4-0.4-0.4h-11c-0.2,0-0.4,0.2-0.4,0.4v1.6
			C15.2,41,15.3,41.2,15.5,41.2z M15.9,39.6h10.2v0.8H15.9V39.6z"/>
		<path id="XMLID_791_" d="M21,47.3c1.4,0,2.5-1.1,2.5-2.5c0-1.4-1.1-2.5-2.5-2.5c-1.4,0-2.5,1.1-2.5,2.5
			C18.5,46.2,19.6,47.3,21,47.3z M21,43.5c0.7,0,1.3,0.6,1.3,1.3c0,0.7-0.6,1.3-1.3,1.3c-0.7,0-1.3-0.6-1.3-1.3
			C19.7,44,20.3,43.5,21,43.5z"/>
		<line id="XMLID_794_" class="st4" x1="16.3" y1="49.8" x2="25.7" y2="49.8"/>
		<line id="XMLID_795_" class="st4" x1="16.3" y1="52.2" x2="25.7" y2="52.2"/>
	</g>
</g>
</svg>
