<?xml version="1.0" encoding="utf-8"?>
<!-- Generator: Adobe Illustrator 19.0.0, SVG Export Plug-In . SVG Version: 6.00 Build 0)  -->
<svg version="1.1" id="Capa_1" xmlns="http://www.w3.org/2000/svg" xmlns:xlink="http://www.w3.org/1999/xlink" x="0px" y="0px"
	 viewBox="0 0 116.5 196.3" style="enable-background:new 0 0 116.5 196.3;" xml:space="preserve">
<style type="text/css">
	.st0{fill:none;stroke:#E14463;stroke-width:1.9174;stroke-miterlimit:10;}
	.st1{fill:#FFFFFF;stroke:#E14463;stroke-width:1.1165;stroke-linecap:round;stroke-linejoin:round;stroke-miterlimit:10;}
</style>
<g id="XMLID_140_">
	<path id="XMLID_21_" class="st0" d="M84.2,192.1L84.2,192.1c17.3,0,31.3-14.1,31.3-31.2v0c0-17.2-14.1-31.2-31.2-31.2H32.2
		C15,129.6,1,115.6,1,98.4v0C1,81.2,15,67.2,32.2,67.2h52.2c17.2,0,31.2-14.1,31.2-31.2v0c0-17.2-14.1-31.2-31.2-31.2"/>
	<g id="XMLID_2_">
		<polygon id="XMLID_343_" class="st1" points="81.8,2.6 85.4,0.6 89,2.6 89,6.8 85.4,8.9 81.8,6.8 		"/>
		<polygon id="XMLID_345_" class="st1" points="81.8,128 85.4,126 89,128 89,132.2 85.4,134.3 81.8,132.2 		"/>
		<polygon id="XMLID_344_" class="st1" points="23.5,65.3 27.1,63.3 30.7,65.3 30.7,69.5 27.1,71.6 23.5,69.5 		"/>
		<polygon id="XMLID_346_" class="st1" points="81.8,189.5 85.4,187.4 89,189.5 89,193.7 85.4,195.7 81.8,193.7 		"/>
	</g>
</g>
</svg>
